<svg width="118" height="25" viewBox="0 0 118 25" fill="none" xmlns="http://www.w3.org/2000/svg">
<path d="M14.128 20.448V24H0.576V0.863998H4.88V20.448H14.128ZM30.0335 7.584V24H27.6175C27.0948 24 26.7642 23.76 26.6255 23.28L26.3535 21.968C25.6815 22.6507 24.9402 23.2053 24.1295 23.632C23.3188 24.048 22.3642 24.256 21.2655 24.256C20.3695 24.256 19.5748 24.1067 18.8815 23.808C18.1988 23.4987 17.6228 23.0667 17.1535 22.512C16.6842 21.9573 16.3268 21.3013 16.0815 20.544C15.8468 19.776 15.7295 18.9333 15.7295 18.016V7.584H19.6815V18.016C19.6815 19.0187 19.9108 19.7973 20.3695 20.352C20.8388 20.896 21.5375 21.168 22.4655 21.168C23.1482 21.168 23.7882 21.0187 24.3855 20.72C24.9828 20.4107 25.5482 19.9893 26.0815 19.456V7.584H30.0335ZM33.952 24V7.584H36.368C36.88 7.584 37.216 7.824 37.376 8.304L37.632 9.52C37.92 9.2 38.2187 8.90667 38.528 8.64C38.848 8.37333 39.184 8.144 39.536 7.952C39.8987 7.76 40.2827 7.61067 40.688 7.504C41.104 7.38667 41.5573 7.328 42.048 7.328C43.0827 7.328 43.9307 7.61067 44.592 8.176C45.264 8.73067 45.7653 9.472 46.096 10.4C46.352 9.856 46.672 9.392 47.056 9.008C47.44 8.61333 47.8613 8.29333 48.32 8.048C48.7787 7.80267 49.264 7.62133 49.776 7.504C50.2987 7.38667 50.8213 7.328 51.344 7.328C52.2507 7.328 53.056 7.46667 53.76 7.744C54.464 8.02133 55.056 8.42667 55.536 8.96C56.016 9.49333 56.3787 10.144 56.624 10.912C56.88 11.68 57.008 12.56 57.008 13.552V24H53.056V13.552C53.056 12.5067 52.8267 11.7227 52.368 11.2C51.9093 10.6667 51.2373 10.4 50.352 10.4C49.9467 10.4 49.568 10.4693 49.216 10.608C48.8747 10.7467 48.5707 10.9493 48.304 11.216C48.048 11.472 47.8453 11.7973 47.696 12.192C47.5467 12.5867 47.472 13.04 47.472 13.552V24H43.504V13.552C43.504 12.4533 43.28 11.6533 42.832 11.152C42.3947 10.6507 41.7493 10.4 40.896 10.4C40.32 10.4 39.7813 10.544 39.28 10.832C38.7893 11.1093 38.3307 11.4933 37.904 11.984V24H33.952ZM64.8605 7.584V24H60.8925V7.584H64.8605ZM65.4045 2.8C65.4045 3.14133 65.3352 3.46133 65.1965 3.76C65.0578 4.05866 64.8712 4.32 64.6365 4.544C64.4125 4.768 64.1458 4.94933 63.8365 5.088C63.5272 5.216 63.1965 5.28 62.8445 5.28C62.5032 5.28 62.1778 5.216 61.8685 5.088C61.5698 4.94933 61.3085 4.768 61.0845 4.544C60.8605 4.32 60.6792 4.05866 60.5405 3.76C60.4125 3.46133 60.3485 3.14133 60.3485 2.8C60.3485 2.448 60.4125 2.11733 60.5405 1.808C60.6792 1.49867 60.8605 1.232 61.0845 1.008C61.3085 0.783999 61.5698 0.607999 61.8685 0.48C62.1778 0.341333 62.5032 0.271999 62.8445 0.271999C63.1965 0.271999 63.5272 0.341333 63.8365 0.48C64.1458 0.607999 64.4125 0.783999 64.6365 1.008C64.8712 1.232 65.0578 1.49867 65.1965 1.808C65.3352 2.11733 65.4045 2.448 65.4045 2.8ZM72.5855 9.6C72.9162 9.26933 73.2628 8.96533 73.6255 8.688C73.9988 8.4 74.3882 8.16 74.7935 7.968C75.2095 7.76533 75.6522 7.61067 76.1215 7.504C76.5908 7.38667 77.1028 7.328 77.6575 7.328C78.5535 7.328 79.3482 7.48267 80.0415 7.792C80.7348 8.09067 81.3108 8.51733 81.7695 9.072C82.2388 9.616 82.5908 10.272 82.8255 11.04C83.0708 11.7973 83.1935 12.6347 83.1935 13.552V24H79.2415V13.552C79.2415 12.5493 79.0122 11.776 78.5535 11.232C78.0948 10.6773 77.3962 10.4 76.4575 10.4C75.7748 10.4 75.1348 10.5547 74.5375 10.864C73.9402 11.1733 73.3748 11.5947 72.8415 12.128V24H68.8895V7.584H71.3055C71.8175 7.584 72.1535 7.824 72.3135 8.304L72.5855 9.6ZM95.624 16.992C94.4827 17.0453 93.5227 17.1467 92.744 17.296C91.9653 17.4347 91.3413 17.616 90.872 17.84C90.4027 18.064 90.0667 18.3253 89.864 18.624C89.6613 18.9227 89.56 19.248 89.56 19.6C89.56 20.2933 89.7627 20.7893 90.168 21.088C90.584 21.3867 91.1227 21.536 91.784 21.536C92.5947 21.536 93.2933 21.392 93.88 21.104C94.4773 20.8053 95.0587 20.3573 95.624 19.76V16.992ZM86.568 9.872C88.456 8.144 90.728 7.28 93.384 7.28C94.344 7.28 95.2027 7.44 95.96 7.76C96.7173 8.06933 97.3573 8.50667 97.88 9.072C98.4027 9.62667 98.7973 10.2933 99.064 11.072C99.3413 11.8507 99.48 12.704 99.48 13.632V24H97.688C97.3147 24 97.0267 23.9467 96.824 23.84C96.6213 23.7227 96.4613 23.4933 96.344 23.152L95.992 21.968C95.576 22.3413 95.1707 22.672 94.776 22.96C94.3813 23.2373 93.9707 23.472 93.544 23.664C93.1173 23.856 92.6587 24 92.168 24.096C91.688 24.2027 91.1547 24.256 90.568 24.256C89.8747 24.256 89.2347 24.1653 88.648 23.984C88.0613 23.792 87.5547 23.5093 87.128 23.136C86.7013 22.7627 86.3707 22.2987 86.136 21.744C85.9013 21.1893 85.784 20.544 85.784 19.808C85.784 19.392 85.8533 18.9813 85.992 18.576C86.1307 18.16 86.3547 17.7653 86.664 17.392C86.984 17.0187 87.3947 16.6667 87.896 16.336C88.3973 16.0053 89.0107 15.7173 89.736 15.472C90.472 15.2267 91.3253 15.0293 92.296 14.88C93.2667 14.72 94.376 14.624 95.624 14.592V13.632C95.624 12.5333 95.3893 11.7227 94.92 11.2C94.4507 10.6667 93.7733 10.4 92.888 10.4C92.248 10.4 91.7147 10.4747 91.288 10.624C90.872 10.7733 90.504 10.944 90.184 11.136C89.864 11.3173 89.5707 11.4827 89.304 11.632C89.048 11.7813 88.76 11.856 88.44 11.856C88.1627 11.856 87.928 11.7867 87.736 11.648C87.544 11.4987 87.3893 11.328 87.272 11.136L86.568 9.872ZM113.778 13.904C113.778 13.392 113.703 12.912 113.554 12.464C113.415 12.0053 113.202 11.6053 112.914 11.264C112.626 10.9227 112.258 10.656 111.81 10.464C111.373 10.2613 110.861 10.16 110.274 10.16C109.133 10.16 108.231 10.4853 107.57 11.136C106.919 11.7867 106.503 12.7093 106.322 13.904H113.778ZM106.242 16.288C106.306 17.1307 106.455 17.8613 106.69 18.48C106.925 19.088 107.234 19.5947 107.618 20C108.002 20.3947 108.455 20.6933 108.978 20.896C109.511 21.088 110.098 21.184 110.738 21.184C111.378 21.184 111.927 21.1093 112.386 20.96C112.855 20.8107 113.261 20.6453 113.602 20.464C113.954 20.2827 114.258 20.1173 114.514 19.968C114.781 19.8187 115.037 19.744 115.282 19.744C115.613 19.744 115.858 19.8667 116.018 20.112L117.154 21.552C116.717 22.064 116.226 22.496 115.682 22.848C115.138 23.1893 114.567 23.4667 113.97 23.68C113.383 23.8827 112.781 24.0267 112.162 24.112C111.554 24.1973 110.962 24.24 110.386 24.24C109.245 24.24 108.183 24.0533 107.202 23.68C106.221 23.296 105.367 22.736 104.642 22C103.917 21.2533 103.346 20.336 102.93 19.248C102.514 18.1493 102.306 16.88 102.306 15.44C102.306 14.32 102.487 13.2693 102.85 12.288C103.213 11.296 103.73 10.4373 104.402 9.712C105.085 8.976 105.911 8.39467 106.882 7.968C107.863 7.54133 108.967 7.328 110.194 7.328C111.229 7.328 112.183 7.49333 113.058 7.824C113.933 8.15467 114.685 8.64 115.314 9.28C115.943 9.90933 116.434 10.688 116.786 11.616C117.149 12.5333 117.33 13.584 117.33 14.768C117.33 15.3653 117.266 15.7707 117.138 15.984C117.01 16.1867 116.765 16.288 116.402 16.288H106.242Z" fill="black"/>
</svg>
