<svg width="128" height="24" viewBox="0 0 128 24" fill="none" xmlns="http://www.w3.org/2000/svg">
<path fill-rule="evenodd" clip-rule="evenodd" d="M51 2C48.2386 2 46 4.23858 46 7V17C46 19.7614 48.2386 22 51 22H61C63.7614 22 66 19.7614 66 17V7C66 4.23858 63.7614 2 61 2H51ZM62 7C62.5523 7 63 6.55228 63 6C63 5.44772 62.5523 5 62 5C61.4477 5 61 5.44772 61 6C61 6.55228 61.4477 7 62 7ZM61 12C61 14.7614 58.7614 17 56 17C53.2386 17 51 14.7614 51 12C51 9.23858 53.2386 7 56 7C58.7614 7 61 9.23858 61 12ZM56 15C57.6569 15 59 13.6569 59 12C59 10.3431 57.6569 9 56 9C54.3431 9 53 10.3431 53 12C53 13.6569 54.3431 15 56 15Z" fill="#C4C4C4"/>
<path d="M92 3H89C86.2386 3 84 5.23858 84 8V10H80V14H84V21H88V14H92V10H88V8C88 7.44772 88.4477 7 89 7H92V3Z" fill="#C4C4C4"/>
<path d="M106.896 10.7964L122.285 4.14575C123.009 3.833 123.793 4.44159 123.67 5.22023L121.565 18.4962C121.436 19.3162 120.421 19.6299 119.851 19.0262L116.398 15.3686C115.721 14.6514 115.668 13.5475 116.273 12.7686L118.711 9.63084C118.85 9.45146 118.63 9.21549 118.441 9.34204L113.594 12.5939C112.771 13.1457 111.773 13.3727 110.793 13.2309L107.15 12.704C106.152 12.5597 105.971 11.1964 106.896 10.7964Z" fill="#C4C4C4"/>
</svg>
