<svg width="103" height="33" viewBox="0 0 103 33" fill="none" xmlns="http://www.w3.org/2000/svg">
<g filter="url(#filter0_d_5121_974)">
<mask id="path-1-outside-1_5121_974" maskUnits="userSpaceOnUse" x="3" y="-1" width="97" height="27" fill="black">
<rect fill="white" x="3" y="-1" width="97" height="27"/>
<path d="M13.536 19.288C12.224 19.288 11 19.056 9.864 18.592C8.728 18.128 7.736 17.48 6.888 16.648C6.04 15.816 5.376 14.84 4.896 13.72C4.432 12.584 4.2 11.36 4.2 10.048C4.2 8.72 4.432 7.496 4.896 6.376C5.36 5.256 6.016 4.28 6.864 3.448C7.712 2.616 8.704 1.976 9.84 1.528C10.976 1.064 12.208 0.831999 13.536 0.831999C14.864 0.831999 16.096 1.064 17.232 1.528C18.368 1.992 19.36 2.64 20.208 3.472C21.056 4.288 21.712 5.256 22.176 6.376C22.656 7.496 22.896 8.72 22.896 10.048C22.896 11.36 22.656 12.584 22.176 13.72C21.696 14.84 21.032 15.816 20.184 16.648C19.336 17.48 18.344 18.128 17.208 18.592C16.088 19.056 14.864 19.288 13.536 19.288ZM13.536 16.312C14.416 16.312 15.224 16.16 15.96 15.856C16.696 15.536 17.336 15.096 17.88 14.536C18.44 13.976 18.864 13.312 19.152 12.544C19.456 11.776 19.608 10.944 19.608 10.048C19.608 9.152 19.456 8.328 19.152 7.576C18.864 6.808 18.44 6.144 17.88 5.584C17.336 5.008 16.696 4.568 15.96 4.264C15.224 3.96 14.416 3.808 13.536 3.808C12.672 3.808 11.872 3.96 11.136 4.264C10.4 4.568 9.752 5.008 9.192 5.584C8.648 6.144 8.224 6.808 7.92 7.576C7.616 8.328 7.464 9.152 7.464 10.048C7.464 10.944 7.616 11.776 7.92 12.544C8.224 13.312 8.648 13.976 9.192 14.536C9.752 15.096 10.4 15.536 11.136 15.856C11.872 16.16 12.672 16.312 13.536 16.312ZM17.664 21.16L12.096 11.848H15.504L21.144 21.16H17.664ZM30.1903 19.288C29.1823 19.288 28.3023 19.064 27.5503 18.616C26.8143 18.168 26.2463 17.544 25.8463 16.744C25.4623 15.944 25.2703 15.008 25.2703 13.936V5.944H28.4143V13.672C28.4143 14.216 28.5183 14.696 28.7263 15.112C28.9503 15.512 29.2623 15.832 29.6623 16.072C30.0783 16.296 30.5423 16.408 31.0543 16.408C31.5663 16.408 32.0223 16.296 32.4223 16.072C32.8223 15.832 33.1343 15.504 33.3583 15.088C33.5823 14.672 33.6943 14.176 33.6943 13.6V5.944H36.8383V19H33.8623V16.432L34.1263 16.888C33.8223 17.688 33.3183 18.288 32.6143 18.688C31.9263 19.088 31.1183 19.288 30.1903 19.288ZM39.7609 19V5.944H42.9049V19H39.7609ZM39.7609 4.48V1.12H42.9049V4.48H39.7609ZM52.0958 19.288C50.7998 19.288 49.6318 18.992 48.5918 18.4C47.5678 17.792 46.7598 16.976 46.1678 15.952C45.5758 14.912 45.2798 13.744 45.2798 12.448C45.2798 11.152 45.5758 9.992 46.1678 8.968C46.7598 7.944 47.5678 7.136 48.5918 6.544C49.6318 5.952 50.7998 5.656 52.0958 5.656C53.0238 5.656 53.8878 5.824 54.6878 6.16C55.4878 6.48 56.1758 6.928 56.7518 7.504C57.3438 8.064 57.7678 8.736 58.0238 9.52L55.2638 10.72C55.0238 10.064 54.6158 9.536 54.0398 9.136C53.4798 8.736 52.8318 8.536 52.0958 8.536C51.4078 8.536 50.7918 8.704 50.2478 9.04C49.7198 9.376 49.3038 9.84 48.9998 10.432C48.6958 11.024 48.5438 11.704 48.5438 12.472C48.5438 13.24 48.6958 13.92 48.9998 14.512C49.3038 15.104 49.7198 15.568 50.2478 15.904C50.7918 16.24 51.4078 16.408 52.0958 16.408C52.8478 16.408 53.5038 16.208 54.0638 15.808C54.6238 15.408 55.0238 14.872 55.2638 14.2L58.0238 15.448C57.7678 16.184 57.3518 16.848 56.7758 17.44C56.1998 18.016 55.5118 18.472 54.7118 18.808C53.9118 19.128 53.0398 19.288 52.0958 19.288ZM60.4093 19V0.831999H63.5533V12.736L62.3533 12.376L68.4973 5.944H72.4093L67.5853 11.2L72.5053 19H68.9053L64.6333 12.232L66.5053 11.848L62.5693 16.072L63.5533 14.152V19H60.4093ZM74.2609 19V0.831999H77.4049V19H74.2609ZM81.8918 24.304C81.5398 24.304 81.1958 24.272 80.8598 24.208C80.5238 24.16 80.2198 24.072 79.9478 23.944V21.304C80.1558 21.352 80.4038 21.4 80.6918 21.448C80.9958 21.496 81.2758 21.52 81.5318 21.52C82.2518 21.52 82.7718 21.352 83.0918 21.016C83.4278 20.68 83.7238 20.24 83.9798 19.696L84.8438 17.68L84.7958 20.32L79.1078 5.944H82.4918L86.4758 16.552H85.2758L89.2358 5.944H92.6438L86.9558 20.32C86.6198 21.168 86.2118 21.888 85.7318 22.48C85.2517 23.072 84.6918 23.52 84.0518 23.824C83.4278 24.144 82.7078 24.304 81.8918 24.304ZM94.8973 19V15.64H98.0653V19H94.8973Z"/>
</mask>
<path d="M13.536 19.288C12.224 19.288 11 19.056 9.864 18.592C8.728 18.128 7.736 17.48 6.888 16.648C6.04 15.816 5.376 14.84 4.896 13.72C4.432 12.584 4.2 11.36 4.2 10.048C4.2 8.72 4.432 7.496 4.896 6.376C5.36 5.256 6.016 4.28 6.864 3.448C7.712 2.616 8.704 1.976 9.84 1.528C10.976 1.064 12.208 0.831999 13.536 0.831999C14.864 0.831999 16.096 1.064 17.232 1.528C18.368 1.992 19.36 2.64 20.208 3.472C21.056 4.288 21.712 5.256 22.176 6.376C22.656 7.496 22.896 8.72 22.896 10.048C22.896 11.36 22.656 12.584 22.176 13.72C21.696 14.84 21.032 15.816 20.184 16.648C19.336 17.48 18.344 18.128 17.208 18.592C16.088 19.056 14.864 19.288 13.536 19.288ZM13.536 16.312C14.416 16.312 15.224 16.16 15.96 15.856C16.696 15.536 17.336 15.096 17.88 14.536C18.44 13.976 18.864 13.312 19.152 12.544C19.456 11.776 19.608 10.944 19.608 10.048C19.608 9.152 19.456 8.328 19.152 7.576C18.864 6.808 18.44 6.144 17.88 5.584C17.336 5.008 16.696 4.568 15.96 4.264C15.224 3.96 14.416 3.808 13.536 3.808C12.672 3.808 11.872 3.96 11.136 4.264C10.4 4.568 9.752 5.008 9.192 5.584C8.648 6.144 8.224 6.808 7.92 7.576C7.616 8.328 7.464 9.152 7.464 10.048C7.464 10.944 7.616 11.776 7.92 12.544C8.224 13.312 8.648 13.976 9.192 14.536C9.752 15.096 10.4 15.536 11.136 15.856C11.872 16.16 12.672 16.312 13.536 16.312ZM17.664 21.16L12.096 11.848H15.504L21.144 21.16H17.664ZM30.1903 19.288C29.1823 19.288 28.3023 19.064 27.5503 18.616C26.8143 18.168 26.2463 17.544 25.8463 16.744C25.4623 15.944 25.2703 15.008 25.2703 13.936V5.944H28.4143V13.672C28.4143 14.216 28.5183 14.696 28.7263 15.112C28.9503 15.512 29.2623 15.832 29.6623 16.072C30.0783 16.296 30.5423 16.408 31.0543 16.408C31.5663 16.408 32.0223 16.296 32.4223 16.072C32.8223 15.832 33.1343 15.504 33.3583 15.088C33.5823 14.672 33.6943 14.176 33.6943 13.6V5.944H36.8383V19H33.8623V16.432L34.1263 16.888C33.8223 17.688 33.3183 18.288 32.6143 18.688C31.9263 19.088 31.1183 19.288 30.1903 19.288ZM39.7609 19V5.944H42.9049V19H39.7609ZM39.7609 4.48V1.12H42.9049V4.48H39.7609ZM52.0958 19.288C50.7998 19.288 49.6318 18.992 48.5918 18.4C47.5678 17.792 46.7598 16.976 46.1678 15.952C45.5758 14.912 45.2798 13.744 45.2798 12.448C45.2798 11.152 45.5758 9.992 46.1678 8.968C46.7598 7.944 47.5678 7.136 48.5918 6.544C49.6318 5.952 50.7998 5.656 52.0958 5.656C53.0238 5.656 53.8878 5.824 54.6878 6.16C55.4878 6.48 56.1758 6.928 56.7518 7.504C57.3438 8.064 57.7678 8.736 58.0238 9.52L55.2638 10.72C55.0238 10.064 54.6158 9.536 54.0398 9.136C53.4798 8.736 52.8318 8.536 52.0958 8.536C51.4078 8.536 50.7918 8.704 50.2478 9.04C49.7198 9.376 49.3038 9.84 48.9998 10.432C48.6958 11.024 48.5438 11.704 48.5438 12.472C48.5438 13.24 48.6958 13.92 48.9998 14.512C49.3038 15.104 49.7198 15.568 50.2478 15.904C50.7918 16.24 51.4078 16.408 52.0958 16.408C52.8478 16.408 53.5038 16.208 54.0638 15.808C54.6238 15.408 55.0238 14.872 55.2638 14.2L58.0238 15.448C57.7678 16.184 57.3518 16.848 56.7758 17.44C56.1998 18.016 55.5118 18.472 54.7118 18.808C53.9118 19.128 53.0398 19.288 52.0958 19.288ZM60.4093 19V0.831999H63.5533V12.736L62.3533 12.376L68.4973 5.944H72.4093L67.5853 11.2L72.5053 19H68.9053L64.6333 12.232L66.5053 11.848L62.5693 16.072L63.5533 14.152V19H60.4093ZM74.2609 19V0.831999H77.4049V19H74.2609ZM81.8918 24.304C81.5398 24.304 81.1958 24.272 80.8598 24.208C80.5238 24.16 80.2198 24.072 79.9478 23.944V21.304C80.1558 21.352 80.4038 21.4 80.6918 21.448C80.9958 21.496 81.2758 21.52 81.5318 21.52C82.2518 21.52 82.7718 21.352 83.0918 21.016C83.4278 20.68 83.7238 20.24 83.9798 19.696L84.8438 17.68L84.7958 20.32L79.1078 5.944H82.4918L86.4758 16.552H85.2758L89.2358 5.944H92.6438L86.9558 20.32C86.6198 21.168 86.2118 21.888 85.7318 22.48C85.2517 23.072 84.6918 23.52 84.0518 23.824C83.4278 24.144 82.7078 24.304 81.8918 24.304ZM94.8973 19V15.64H98.0653V19H94.8973Z" fill="white"/>
<path d="M9.864 18.592L9.48588 19.5178L9.864 18.592ZM6.888 16.648L6.18766 17.3618L6.888 16.648ZM4.896 13.72L3.97025 14.0981L3.97348 14.1061L3.97686 14.1139L4.896 13.72ZM4.896 6.376L5.81986 6.75874L4.896 6.376ZM6.864 3.448L7.56434 4.16181L7.56434 4.16181L6.864 3.448ZM9.84 1.528L10.2069 2.45834L10.2181 2.45375L9.84 1.528ZM17.232 1.528L17.6101 0.602244L17.232 1.528ZM20.208 3.472L19.5076 4.18584L19.5146 4.19257L20.208 3.472ZM22.176 6.376L21.2521 6.75877L21.2569 6.76992L22.176 6.376ZM22.176 13.72L23.0952 14.1139L23.0971 14.1092L22.176 13.72ZM20.184 16.648L19.4837 15.9342L20.184 16.648ZM17.208 18.592L16.8299 17.6662L16.8253 17.6681L17.208 18.592ZM15.96 15.856L16.3418 16.7803L16.3503 16.7767L16.3587 16.7731L15.96 15.856ZM17.88 14.536L17.1729 13.8289L17.1678 13.834L17.1627 13.8392L17.88 14.536ZM19.152 12.544L18.2222 12.176L18.2189 12.1844L18.2157 12.1929L19.152 12.544ZM19.152 7.576L18.2157 7.92712L18.2201 7.93901L18.2249 7.95079L19.152 7.576ZM17.88 5.584L17.153 6.27062L17.1628 6.28101L17.1729 6.29111L17.88 5.584ZM9.192 5.584L8.47501 4.88692L8.47472 4.88721L9.192 5.584ZM7.92 7.576L8.84713 7.9508L8.84981 7.94405L7.92 7.576ZM7.92 12.544L8.84981 12.176L7.92 12.544ZM9.192 14.536L8.47472 15.2328L8.47977 15.238L8.48489 15.2431L9.192 14.536ZM11.136 15.856L10.7373 16.7731L10.7457 16.7767L10.7542 16.7803L11.136 15.856ZM17.664 21.16L16.8057 21.6732L17.0968 22.16H17.664V21.16ZM12.096 11.848V10.848H10.3329L11.2377 12.3612L12.096 11.848ZM15.504 11.848L16.3593 11.3299L16.0674 10.848H15.504V11.848ZM21.144 21.16V22.16H22.9188L21.9993 20.6419L21.144 21.16ZM13.536 18.288C12.3446 18.288 11.25 18.0779 10.2421 17.6662L9.48588 19.5178C10.75 20.0341 12.1034 20.288 13.536 20.288V18.288ZM10.2421 17.6662C9.22223 17.2497 8.34064 16.6723 7.58834 15.9342L6.18766 17.3618C7.13136 18.2877 8.23377 19.0063 9.48588 19.5178L10.2421 17.6662ZM7.58834 15.9342C6.83585 15.1959 6.24512 14.3294 5.81515 13.3261L3.97686 14.1139C4.50688 15.3506 5.24415 16.4361 6.18766 17.3618L7.58834 15.9342ZM5.82175 13.3419C5.4101 12.334 5.2 11.2394 5.2 10.048H3.2C3.2 11.4806 3.4539 12.834 3.97025 14.0981L5.82175 13.3419ZM5.2 10.048C5.2 8.83875 5.41073 7.74628 5.81986 6.75874L3.97214 5.99326C3.45327 7.24572 3.2 8.60125 3.2 10.048H5.2ZM5.81986 6.75874C6.23346 5.7604 6.81435 4.89765 7.56434 4.16181L6.16366 2.73419C5.21765 3.66235 4.48654 4.7516 3.97214 5.99326L5.81986 6.75874ZM7.56434 4.16181C8.3141 3.4262 9.19184 2.85857 10.2069 2.45827L9.47313 0.597726C8.21616 1.09343 7.1099 1.8058 6.16366 2.73419L7.56434 4.16181ZM10.2181 2.45375C11.2245 2.04269 12.3269 1.832 13.536 1.832V-0.168001C12.0891 -0.168001 10.7275 0.0853109 9.46188 0.602244L10.2181 2.45375ZM13.536 1.832C14.7451 1.832 15.8475 2.04269 16.8539 2.45375L17.6101 0.602244C16.3445 0.0853109 14.9829 -0.168001 13.536 -0.168001V1.832ZM16.8539 2.45375C17.8738 2.87033 18.7554 3.4477 19.5077 4.18581L20.9083 2.75819C19.9646 1.8323 18.8622 1.11367 17.6101 0.602244L16.8539 2.45375ZM19.5146 4.19257C20.2603 4.91013 20.8392 5.76209 21.2521 6.75874L23.0999 5.99326C22.5848 4.74991 21.8517 3.66587 20.9014 2.75143L19.5146 4.19257ZM21.2569 6.76992C21.6789 7.75464 21.896 8.84316 21.896 10.048H23.896C23.896 8.59684 23.6331 7.23736 23.0951 5.98208L21.2569 6.76992ZM21.896 10.048C21.896 11.235 21.6795 12.3257 21.2549 13.3308L23.0971 14.1092C23.6325 12.8423 23.896 11.485 23.896 10.048H21.896ZM21.2569 13.3261C20.8269 14.3294 20.2361 15.1959 19.4837 15.9342L20.8843 17.3618C21.8279 16.4361 22.5651 15.3506 23.0951 14.1139L21.2569 13.3261ZM19.4837 15.9342C18.7314 16.6723 17.8498 17.2497 16.8299 17.6662L17.5861 19.5178C18.8382 19.0063 19.9406 18.2877 20.8843 17.3618L19.4837 15.9342ZM16.8253 17.6681C15.8377 18.0773 14.7453 18.288 13.536 18.288V20.288C14.9827 20.288 16.3383 20.0347 17.5907 19.5159L16.8253 17.6681ZM13.536 17.312C14.5332 17.312 15.4726 17.1393 16.3418 16.7803L15.5782 14.9317C14.9754 15.1807 14.2988 15.312 13.536 15.312V17.312ZM16.3587 16.7731C17.2108 16.4026 17.9599 15.8889 18.5973 15.2328L17.1627 13.8392C16.7121 14.3031 16.1812 14.6694 15.5613 14.9389L16.3587 16.7731ZM18.5871 15.2431C19.2517 14.5785 19.752 13.7919 20.0883 12.8951L18.2157 12.1929C17.976 12.8321 17.6283 13.3735 17.1729 13.8289L18.5871 15.2431ZM20.0818 12.912C20.436 12.0173 20.608 11.0593 20.608 10.048H18.608C18.608 10.8287 18.476 11.5347 18.2222 12.176L20.0818 12.912ZM20.608 10.048C20.608 9.03701 20.4361 8.08417 20.0791 7.20121L18.2249 7.95079C18.4759 8.57183 18.608 9.26699 18.608 10.048H20.608ZM20.0883 7.22488C19.752 6.32811 19.2517 5.54146 18.5871 4.87689L17.1729 6.29111C17.6283 6.74654 17.976 7.28789 18.2157 7.92712L20.0883 7.22488ZM18.607 4.89738C17.9655 4.21813 17.2077 3.69739 16.3418 3.33974L15.5782 5.18826C16.1843 5.43861 16.7065 5.79787 17.153 6.27062L18.607 4.89738ZM16.3418 3.33974C15.4726 2.98072 14.5332 2.808 13.536 2.808V4.808C14.2988 4.808 14.9754 4.93928 15.5782 5.18826L16.3418 3.33974ZM13.536 2.808C12.5522 2.808 11.6213 2.98162 10.7542 3.33974L11.5178 5.18826C12.1227 4.93838 12.7918 4.808 13.536 4.808V2.808ZM10.7542 3.33974C9.89103 3.69628 9.12922 4.21401 8.47501 4.88692L9.909 6.28108C10.3748 5.80199 10.909 5.43972 11.5178 5.18826L10.7542 3.33974ZM8.47472 4.88721C7.83366 5.54713 7.33983 6.32465 6.99019 7.20795L8.84981 7.94405C9.10817 7.29135 9.46234 6.74087 9.90928 6.28079L8.47472 4.88721ZM6.99289 7.20121C6.63595 8.08417 6.464 9.03701 6.464 10.048H8.464C8.464 9.26699 8.59605 8.57183 8.84711 7.95079L6.99289 7.20121ZM6.464 10.048C6.464 11.0593 6.63602 12.0173 6.99019 12.912L8.84981 12.176C8.59598 11.5347 8.464 10.8287 8.464 10.048H6.464ZM6.99019 12.912C7.33983 13.7954 7.83366 14.5729 8.47472 15.2328L9.90928 13.8392C9.46234 13.3791 9.10817 12.8286 8.84981 12.176L6.99019 12.912ZM8.48489 15.2431C9.13481 15.893 9.8878 16.4037 10.7373 16.7731L11.5347 14.9389C10.9122 14.6683 10.3692 14.299 9.89911 13.8289L8.48489 15.2431ZM10.7542 16.7803C11.6213 17.1384 12.5522 17.312 13.536 17.312V15.312C12.7918 15.312 12.1227 15.1816 11.5178 14.9317L10.7542 16.7803ZM18.5223 20.6468L12.9543 11.3348L11.2377 12.3612L16.8057 21.6732L18.5223 20.6468ZM12.096 12.848H15.504V10.848H12.096V12.848ZM14.6487 12.3661L20.2887 21.6781L21.9993 20.6419L16.3593 11.3299L14.6487 12.3661ZM21.144 20.16H17.664V22.16H21.144V20.16ZM27.5503 18.616L27.0303 19.4702L27.0385 19.4751L27.5503 18.616ZM25.8463 16.744L24.9448 17.1767L24.9483 17.184L24.9519 17.1912L25.8463 16.744ZM25.2703 5.944V4.944H24.2703V5.944H25.2703ZM28.4143 5.944H29.4143V4.944H28.4143V5.944ZM28.7263 15.112L27.8319 15.5592L27.8424 15.5802L27.8538 15.6006L28.7263 15.112ZM29.6623 16.072L29.1478 16.9295L29.1677 16.9415L29.1882 16.9525L29.6623 16.072ZM32.4223 16.072L32.9109 16.9445L32.924 16.9372L32.9368 16.9295L32.4223 16.072ZM33.3583 15.088L34.2388 15.5621L33.3583 15.088ZM33.6943 5.944V4.944H32.6943V5.944H33.6943ZM36.8383 5.944H37.8383V4.944H36.8383V5.944ZM36.8383 19V20H37.8383V19H36.8383ZM33.8623 19H32.8623V20H33.8623V19ZM33.8623 16.432L34.7277 15.931L32.8623 12.7089V16.432H33.8623ZM34.1263 16.888L35.0611 17.2432L35.2301 16.7986L34.9917 16.387L34.1263 16.888ZM32.6143 18.688L32.1203 17.8185L32.1117 17.8235L32.6143 18.688ZM30.1903 18.288C29.3347 18.288 28.6371 18.0994 28.0621 17.7569L27.0385 19.4751C27.9675 20.0286 29.0299 20.288 30.1903 20.288V18.288ZM28.0703 17.7618C27.5012 17.4154 27.06 16.9354 26.7407 16.2968L24.9519 17.1912C25.4326 18.1527 26.1275 18.9206 27.0304 19.4702L28.0703 17.7618ZM26.7478 16.3113C26.4407 15.6715 26.2703 14.8889 26.2703 13.936H24.2703C24.2703 15.1271 24.4839 16.2165 24.9448 17.1767L26.7478 16.3113ZM26.2703 13.936V5.944H24.2703V13.936H26.2703ZM25.2703 6.944H28.4143V4.944H25.2703V6.944ZM27.4143 5.944V13.672H29.4143V5.944H27.4143ZM27.4143 13.672C27.4143 14.345 27.5436 14.9826 27.8319 15.5592L29.6207 14.6648C29.493 14.4094 29.4143 14.087 29.4143 13.672H27.4143ZM27.8538 15.6006C28.1645 16.1554 28.6011 16.6015 29.1478 16.9295L30.1768 15.2145C29.9235 15.0625 29.7361 14.8686 29.5988 14.6234L27.8538 15.6006ZM29.1882 16.9525C29.7619 17.2614 30.391 17.408 31.0543 17.408V15.408C30.6936 15.408 30.3947 15.3306 30.1364 15.1915L29.1882 16.9525ZM31.0543 17.408C31.717 17.408 32.3448 17.2615 32.9109 16.9445L31.9337 15.1995C31.6998 15.3305 31.4156 15.408 31.0543 15.408V17.408ZM32.9368 16.9295C33.4931 16.5957 33.9307 16.1343 34.2388 15.5621L32.4778 14.6139C32.338 14.8737 32.1515 15.0683 31.9078 15.2145L32.9368 16.9295ZM34.2388 15.5621C34.5567 14.9717 34.6943 14.3056 34.6943 13.6H32.6943C32.6943 14.0464 32.608 14.3723 32.4778 14.6139L34.2388 15.5621ZM34.6943 13.6V5.944H32.6943V13.6H34.6943ZM33.6943 6.944H36.8383V4.944H33.6943V6.944ZM35.8383 5.944V19H37.8383V5.944H35.8383ZM36.8383 18H33.8623V20H36.8383V18ZM34.8623 19V16.432H32.8623V19H34.8623ZM32.9969 16.933L33.2609 17.389L34.9917 16.387L34.7277 15.931L32.9969 16.933ZM33.1915 16.5328C32.9651 17.1287 32.6099 17.5403 32.1203 17.8185L33.1083 19.5575C34.0267 19.0357 34.6795 18.2473 35.0611 17.2432L33.1915 16.5328ZM32.1117 17.8235C31.6001 18.121 30.9714 18.288 30.1903 18.288V20.288C31.2652 20.288 32.2526 20.055 33.1169 19.5525L32.1117 17.8235ZM39.7609 19H38.7609V20H39.7609V19ZM39.7609 5.944V4.944H38.7609V5.944H39.7609ZM42.9049 5.944H43.9049V4.944H42.9049V5.944ZM42.9049 19V20H43.9049V19H42.9049ZM39.7609 4.48H38.7609V5.48H39.7609V4.48ZM39.7609 1.12V0.119998H38.7609V1.12H39.7609ZM42.9049 1.12H43.9049V0.119998H42.9049V1.12ZM42.9049 4.48V5.48H43.9049V4.48H42.9049ZM40.7609 19V5.944H38.7609V19H40.7609ZM39.7609 6.944H42.9049V4.944H39.7609V6.944ZM41.9049 5.944V19H43.9049V5.944H41.9049ZM42.9049 18H39.7609V20H42.9049V18ZM40.7609 4.48V1.12H38.7609V4.48H40.7609ZM39.7609 2.12H42.9049V0.119998H39.7609V2.12ZM41.9049 1.12V4.48H43.9049V1.12H41.9049ZM42.9049 3.48H39.7609V5.48H42.9049V3.48ZM48.5918 18.4L48.0812 19.2599L48.0891 19.2645L48.0971 19.2691L48.5918 18.4ZM46.1678 15.952L45.2987 16.4467L45.302 16.4525L46.1678 15.952ZM46.1678 8.968L47.0335 9.4685L46.1678 8.968ZM48.5918 6.544L48.097 5.67491L48.0912 5.67826L48.5918 6.544ZM54.6878 6.16L54.3005 7.08198L54.3084 7.0853L54.3164 7.08848L54.6878 6.16ZM56.7518 7.504L56.0446 8.21111L56.0545 8.22093L56.0646 8.23047L56.7518 7.504ZM58.0238 9.52L58.4225 10.4371L59.2567 10.0744L58.9744 9.2096L58.0238 9.52ZM55.2638 10.72L54.3246 11.0636L54.6892 12.0602L55.6625 11.6371L55.2638 10.72ZM54.0397 9.136L53.4585 9.9498L53.4694 9.95737L54.0397 9.136ZM50.2477 9.04L49.7222 8.18913L49.7109 8.19634L50.2477 9.04ZM48.9997 10.432L48.1102 9.97519L48.9997 10.432ZM48.9997 14.512L48.1102 14.9688L48.9997 14.512ZM50.2477 15.904L49.7108 16.7477L49.7223 16.7548L50.2477 15.904ZM54.0638 15.808L54.645 16.6217L54.0638 15.808ZM55.2638 14.2L55.6758 13.2888L54.687 12.8417L54.322 13.8637L55.2638 14.2ZM58.0238 15.448L58.9682 15.7765L59.2685 14.9134L58.4358 14.5368L58.0238 15.448ZM56.7757 17.44L57.4829 18.1472L57.4925 18.1374L56.7757 17.44ZM54.7118 18.808L55.0831 19.7365L55.0911 19.7333L55.099 19.73L54.7118 18.808ZM52.0957 18.288C50.9584 18.288 49.9633 18.0301 49.0864 17.5309L48.0971 19.2691C49.3002 19.9539 50.6411 20.288 52.0957 20.288V18.288ZM49.1023 17.5401C48.2244 17.0189 47.5392 16.3262 47.0335 15.4515L45.302 16.4525C45.9803 17.6258 46.9111 18.5651 48.0812 19.2599L49.1023 17.5401ZM47.0368 15.4573C46.5377 14.5804 46.2798 13.5854 46.2798 12.448H44.2798C44.2798 13.9026 44.6138 15.2436 45.2987 16.4467L47.0368 15.4573ZM46.2798 12.448C46.2798 11.3104 46.5377 10.3261 47.0335 9.4685L45.302 8.4675C44.6138 9.65794 44.2798 10.9936 44.2798 12.448H46.2798ZM47.0335 9.4685C47.5378 8.59613 48.2199 7.91407 49.0923 7.40973L48.0912 5.67826C46.9156 6.35792 45.9817 7.29187 45.302 8.4675L47.0335 9.4685ZM49.0864 7.41306C49.9633 6.91393 50.9584 6.656 52.0957 6.656V4.656C50.6411 4.656 49.3002 4.99007 48.0971 5.67493L49.0864 7.41306ZM52.0957 6.656C52.9001 6.656 53.6315 6.80098 54.3005 7.08198L55.075 5.23802C54.144 4.84702 53.1474 4.656 52.0957 4.656V6.656ZM54.3164 7.08848C54.998 7.36113 55.5699 7.73633 56.0446 8.21111L57.4589 6.79689C56.7816 6.11967 55.9775 5.59887 55.0591 5.23152L54.3164 7.08848ZM56.0646 8.23047C56.5339 8.67447 56.8682 9.20288 57.0731 9.8304L58.9744 9.2096C58.6673 8.26912 58.1536 7.45353 57.4389 6.77753L56.0646 8.23047ZM57.625 8.60293L54.865 9.80293L55.6625 11.6371L58.4225 10.4371L57.625 8.60293ZM56.2029 10.3764C55.8918 9.52617 55.3546 8.83162 54.6101 8.31463L53.4694 9.95737C53.8769 10.2404 54.1557 10.6018 54.3246 11.0636L56.2029 10.3764ZM54.621 8.32227C53.8793 7.79251 53.0249 7.536 52.0957 7.536V9.536C52.6386 9.536 53.0802 9.67948 53.4585 9.94973L54.621 8.32227ZM52.0957 7.536C51.2368 7.536 50.4362 7.74823 49.7223 8.1892L50.7732 9.8908C51.1473 9.65977 51.5787 9.536 52.0957 9.536V7.536ZM49.7109 8.19634C49.0235 8.63377 48.49 9.2356 48.1102 9.97519L49.8893 10.8888C50.1175 10.4444 50.416 10.1182 50.7846 9.88366L49.7109 8.19634ZM48.1102 9.97519C47.7232 10.7289 47.5438 11.5697 47.5438 12.472H49.5438C49.5438 11.8383 49.6683 11.3191 49.8893 10.8888L48.1102 9.97519ZM47.5438 12.472C47.5438 13.3743 47.7232 14.2151 48.1102 14.9688L49.8893 14.0552C49.6683 13.6249 49.5438 13.1057 49.5438 12.472H47.5438ZM48.1102 14.9688C48.49 15.7084 49.0235 16.3102 49.7109 16.7477L50.7846 15.0603C50.416 14.8258 50.1175 14.4996 49.8893 14.0552L48.1102 14.9688ZM49.7223 16.7548C50.4362 17.1958 51.2368 17.408 52.0957 17.408V15.408C51.5787 15.408 51.1473 15.2842 50.7732 15.0532L49.7223 16.7548ZM52.0957 17.408C53.0359 17.408 53.8996 17.1542 54.645 16.6217L53.4825 14.9943C53.1079 15.2618 52.6596 15.408 52.0957 15.408V17.408ZM54.645 16.6217C55.3775 16.0985 55.8995 15.393 56.2055 14.5363L54.322 13.8637C54.148 14.351 53.87 14.7175 53.4825 14.9943L54.645 16.6217ZM54.8517 15.1112L57.6117 16.3592L58.4358 14.5368L55.6758 13.2888L54.8517 15.1112ZM57.0793 15.1195C56.8742 15.7091 56.5393 16.249 56.059 16.7426L57.4925 18.1374C58.1642 17.447 58.6613 16.6589 58.9682 15.7765L57.0793 15.1195ZM56.0686 16.7329C55.5902 17.2113 55.0129 17.5969 54.3245 17.886L55.099 19.73C56.0106 19.3471 56.8093 18.8207 57.4829 18.1471L56.0686 16.7329ZM54.3404 17.8795C53.6693 18.1479 52.9247 18.288 52.0957 18.288V20.288C53.1548 20.288 54.1542 20.1081 55.0831 19.7365L54.3404 17.8795ZM60.4093 19H59.4093V20H60.4093V19ZM60.4093 0.831999V-0.168001H59.4093V0.831999H60.4093ZM63.5533 0.831999H64.5533V-0.168001H63.5533V0.831999ZM63.5533 12.736L63.266 13.6938L64.5533 14.08V12.736H63.5533ZM62.3533 12.376L61.6302 11.6853L60.5033 12.865L62.066 13.3338L62.3533 12.376ZM68.4973 5.944V4.944H68.0696L67.7742 5.25327L68.4973 5.944ZM72.4093 5.944L73.146 6.62018L74.6845 4.944H72.4093V5.944ZM67.5853 11.2L66.8486 10.5238L66.3317 11.087L66.7395 11.7335L67.5853 11.2ZM72.5053 19V20H74.3184L73.3511 18.4665L72.5053 19ZM68.9053 19L68.0597 19.5338L68.354 20H68.9053V19ZM64.6333 12.232L64.4324 11.2524L63.0158 11.543L63.7877 12.7658L64.6333 12.232ZM66.5053 11.848L67.2369 12.5297L69.3712 10.2393L66.3044 10.8684L66.5053 11.848ZM62.5693 16.072L61.6794 15.6159L63.3009 16.7537L62.5693 16.072ZM63.5533 14.152H64.5533L62.6634 13.6959L63.5533 14.152ZM63.5533 19V20H64.5533V19H63.5533ZM61.4093 19V0.831999H59.4093V19H61.4093ZM60.4093 1.832H63.5533V-0.168001H60.4093V1.832ZM62.5533 0.831999V12.736H64.5533V0.831999H62.5533ZM63.8407 11.7782L62.6407 11.4182L62.066 13.3338L63.266 13.6938L63.8407 11.7782ZM63.0764 13.0667L69.2204 6.63473L67.7742 5.25327L61.6302 11.6853L63.0764 13.0667ZM68.4973 6.944H72.4093V4.944H68.4973V6.944ZM71.6726 5.26782L66.8486 10.5238L68.322 11.8762L73.146 6.62018L71.6726 5.26782ZM66.7395 11.7335L71.6595 19.5335L73.3511 18.4665L68.4311 10.6665L66.7395 11.7335ZM72.5053 18H68.9053V20H72.5053V18ZM69.7509 18.4662L65.4789 11.6982L63.7877 12.7658L68.0597 19.5338L69.7509 18.4662ZM64.8343 13.2116L66.7063 12.8276L66.3044 10.8684L64.4324 11.2524L64.8343 13.2116ZM65.7737 11.1663L61.8377 15.3903L63.3009 16.7537L67.2369 12.5297L65.7737 11.1663ZM63.4592 16.5281L64.4432 14.6081L62.6634 13.6959L61.6794 15.6159L63.4592 16.5281ZM62.5533 14.152V19H64.5533V14.152H62.5533ZM63.5533 18H60.4093V20H63.5533V18ZM74.2609 19H73.2609V20H74.2609V19ZM74.2609 0.831999V-0.168001H73.2609V0.831999H74.2609ZM77.4049 0.831999H78.4049V-0.168001H77.4049V0.831999ZM77.4049 19V20H78.4049V19H77.4049ZM75.2609 19V0.831999H73.2609V19H75.2609ZM74.2609 1.832H77.4049V-0.168001H74.2609V1.832ZM76.4049 0.831999V19H78.4049V0.831999H76.4049ZM77.4049 18H74.2609V20H77.4049V18ZM80.8597 24.208L81.0469 23.2257L81.0241 23.2213L81.0012 23.2181L80.8597 24.208ZM79.9478 23.944H78.9478V24.5786L79.5219 24.8488L79.9478 23.944ZM79.9478 21.304L80.1726 20.3296L78.9478 20.0469V21.304H79.9478ZM80.6917 21.448L80.5273 22.4344L80.5358 22.4358L80.6917 21.448ZM83.0918 21.016L82.3846 20.3089L82.376 20.3175L82.3676 20.3263L83.0918 21.016ZM83.9798 19.696L84.8846 20.1218L84.892 20.106L84.8989 20.0899L83.9798 19.696ZM84.8438 17.68L85.8436 17.6982L83.9246 17.2861L84.8438 17.68ZM84.7958 20.32L83.8659 20.6879L85.7956 20.3382L84.7958 20.32ZM79.1077 5.944V4.944H77.6367L78.1779 6.31191L79.1077 5.944ZM82.4918 5.944L83.4279 5.59241L83.1844 4.944H82.4918V5.944ZM86.4758 16.552V17.552H87.9195L87.4119 16.2004L86.4758 16.552ZM85.2757 16.552L84.3389 16.2023L83.835 17.552H85.2757V16.552ZM89.2357 5.944V4.944H88.5416L88.2989 5.59427L89.2357 5.944ZM92.6438 5.944L93.5736 6.31191L94.1148 4.944H92.6438V5.944ZM86.9557 20.32L87.8854 20.6884L87.8856 20.6879L86.9557 20.32ZM85.7318 22.48L86.5085 23.1098L85.7318 22.48ZM84.0518 23.824L83.6227 22.9207L83.609 22.9272L83.5954 22.9342L84.0518 23.824ZM81.8917 23.304C81.6007 23.304 81.3194 23.2776 81.0469 23.2257L80.6726 25.1903C81.0721 25.2664 81.4788 25.304 81.8917 25.304V23.304ZM81.0012 23.2181C80.7512 23.1823 80.5448 23.1198 80.3736 23.0392L79.5219 24.8488C79.8947 25.0243 80.2963 25.1377 80.7183 25.198L81.0012 23.2181ZM80.9478 23.944V21.304H78.9478V23.944H80.9478ZM79.7229 22.2784C79.9567 22.3323 80.2259 22.3841 80.5274 22.4344L80.8561 20.4616C80.5816 20.4159 80.3548 20.3717 80.1726 20.3296L79.7229 22.2784ZM80.5358 22.4358C80.8814 22.4903 81.2143 22.52 81.5318 22.52V20.52C81.3372 20.52 81.1101 20.5017 80.8477 20.4602L80.5358 22.4358ZM81.5318 22.52C82.3771 22.52 83.2248 22.3263 83.8159 21.7057L82.3676 20.3263C82.3187 20.3777 82.1264 20.52 81.5318 20.52V22.52ZM83.7989 21.7231C84.2349 21.287 84.5919 20.7438 84.8846 20.1218L83.0749 19.2702C82.8556 19.7362 82.6206 20.073 82.3846 20.3089L83.7989 21.7231ZM84.8989 20.0899L85.7629 18.0739L83.9246 17.2861L83.0606 19.3021L84.8989 20.0899ZM83.8439 17.6618L83.7959 20.3018L85.7956 20.3382L85.8436 17.6982L83.8439 17.6618ZM85.7256 19.9521L80.0376 5.57609L78.1779 6.31191L83.8659 20.6879L85.7256 19.9521ZM79.1077 6.944H82.4918V4.944H79.1077V6.944ZM81.5556 6.29559L85.5396 16.9036L87.4119 16.2004L83.4279 5.59241L81.5556 6.29559ZM86.4758 15.552H85.2757V17.552H86.4758V15.552ZM86.2126 16.9017L90.1726 6.29373L88.2989 5.59427L84.3389 16.2023L86.2126 16.9017ZM89.2357 6.944H92.6438V4.944H89.2357V6.944ZM91.7139 5.57609L86.0259 19.9521L87.8856 20.6879L93.5736 6.31191L91.7139 5.57609ZM86.0261 19.9516C85.7204 20.7232 85.3599 21.3508 84.955 21.8502L86.5085 23.1098C87.0636 22.4252 87.5191 21.6128 87.8854 20.6884L86.0261 19.9516ZM84.955 21.8502C84.5618 22.3352 84.1178 22.6855 83.6227 22.9207L84.4808 24.7273C85.2657 24.3545 85.9417 23.8088 86.5085 23.1098L84.955 21.8502ZM83.5954 22.9342C83.1341 23.1708 82.575 23.304 81.8917 23.304V25.304C82.8405 25.304 83.7214 25.1172 84.5081 24.7138L83.5954 22.9342ZM94.8973 19H93.8973V20H94.8973V19ZM94.8973 15.64V14.64H93.8973V15.64H94.8973ZM98.0653 15.64H99.0653V14.64H98.0653V15.64ZM98.0653 19V20H99.0653V19H98.0653ZM95.8973 19V15.64H93.8973V19H95.8973ZM94.8973 16.64H98.0653V14.64H94.8973V16.64ZM97.0653 15.64V19H99.0653V15.64H97.0653ZM98.0653 18H94.8973V20H98.0653V18Z" fill="black" mask="url(#path-1-outside-1_5121_974)"/>
</g>
<defs>
<filter id="filter0_d_5121_974" x="0.199951" y="0.832031" width="101.865" height="31.4719" filterUnits="userSpaceOnUse" color-interpolation-filters="sRGB">
<feFlood flood-opacity="0" result="BackgroundImageFix"/>
<feColorMatrix in="SourceAlpha" type="matrix" values="0 0 0 0 0 0 0 0 0 0 0 0 0 0 0 0 0 0 127 0" result="hardAlpha"/>
<feOffset dy="4"/>
<feGaussianBlur stdDeviation="2"/>
<feComposite in2="hardAlpha" operator="out"/>
<feColorMatrix type="matrix" values="0 0 0 0 0 0 0 0 0 0 0 0 0 0 0 0 0 0 0.25 0"/>
<feBlend mode="normal" in2="BackgroundImageFix" result="effect1_dropShadow_5121_974"/>
<feBlend mode="normal" in="SourceGraphic" in2="effect1_dropShadow_5121_974" result="shape"/>
</filter>
</defs>
</svg>
