<svg width="20" height="20" viewBox="0 0 20 20" fill="none" xmlns="http://www.w3.org/2000/svg">
<path d="M10 0.0402222C4.5 0.0402222 0 4.53022 0 10.0602C0 15.0602 3.66 19.2102 8.44 19.9602V12.9602H5.9V10.0602H8.44V7.85022C8.44 5.34022 9.93 3.96022 12.22 3.96022C13.31 3.96022 14.45 4.15022 14.45 4.15022V6.62022H13.19C11.95 6.62022 11.56 7.39022 11.56 8.18022V10.0602H14.34L13.89 12.9602H11.56V19.9602C13.9164 19.5881 16.0622 18.3857 17.6099 16.5703C19.1576 14.7548 20.0054 12.4459 20 10.0602C20 4.53022 15.5 0.0402222 10 0.0402222Z" fill="#072125"/>
</svg>
